<?xml version="1.0" encoding="UTF-8" standalone="no"?>
<!-- Generator: Adobe Illustrator 14.0.0, SVG Export Plug-In . SVG Version: 6.00 Build 43363)  -->

<svg
   xmlns:dc="http://purl.org/dc/elements/1.1/"
   xmlns:cc="http://creativecommons.org/ns#"
   xmlns:rdf="http://www.w3.org/1999/02/22-rdf-syntax-ns#"
   xmlns:svg="http://www.w3.org/2000/svg"
   xmlns="http://www.w3.org/2000/svg"
   xmlns:sodipodi="http://sodipodi.sourceforge.net/DTD/sodipodi-0.dtd"
   xmlns:inkscape="http://www.inkscape.org/namespaces/inkscape"
   version="1.1"
   id="Layer_1"
   x="0px"
   y="0px"
   width="552"
   height="357"
   viewBox="0 0 551.99998 357.00001"
   enable-background="new 0 0 303.424 213.027"
   xml:space="preserve">
<path
   style="fill:#51214d"
   id="path5"
   d="m 74.169345,279.17191 c -12.450585,0 -18.938613,2.82711 -21.972004,6.68779 -1.88257,-3.76297 -4.29061,-6.68779 -17.257979,-6.68779 -11.93163,0 -18.206864,2.92482 -20.823354,6.48151 l -1.359272,-5.12875 -12.7567471236,0.94237 v 58.26848 H 16.424165 v -31.90164 c 0,-7.84513 1.248533,-13.17799 12.652522,-13.17799 9.936149,0 10.151113,5.23298 10.151113,12.44407 v 32.63556 h 16.422005 v -31.90164 c 0,-7.84513 1.263732,-13.17799 12.659036,-13.17799 9.944834,0 10.044717,5.23298 10.044717,12.44407 v 32.63556 h 16.530573 v -35.87741 c -0.0022,-14.74571 -2.831455,-24.6862 -20.714786,-24.6862 m 83.901395,41.52945 v -17.99407 c 0,-16.73251 -4.397,-23.53538 -25.73931,-23.53538 -12.45059,0 -22.90786,4.39049 -27.08991,7.21543 l 8.15564,12.025 c 3.55451,-2.19307 9.93397,-4.80739 17.15592,-4.80739 10.24883,0 11.60593,2.71854 11.72535,8.05575 h -2.42107 c -26.25175,0 -37.97493,3.97359 -37.97493,20.71261 0,10.35739 3.9801,18.31109 22.28251,18.31109 11.19988,0 17.78562,-2.51444 20.81901,-6.59442 2.29947,4.60763 5.02236,5.86267 11.29542,5.86267 3.66526,0 5.75628,-0.11508 6.9071,-0.42341 v -13.39079 c -4.81174,0 -5.11573,-0.73175 -5.11573,-5.43709 m -15.79014,-5.54565 c 0,8.68978 -4.50557,12.3507 -14.86948,12.3507 -7.53028,0 -9.92746,-2.09754 -9.92746,-6.48803 0,-6.38163 2.50141,-8.05575 23.42464,-8.05575 h 1.37447 v 2.19308 z m 64.60451,-35.9838 c -12.55481,0 -18.51302,2.82711 -21.6463,6.58139 l -1.36578,-5.22863 -12.76326,0.94237 v 75.53297 h 16.42417 v -21.86344 c 2.71855,3.45681 7.73873,5.55 18.41749,5.55 20.91021,0 26.24958,-13.59923 26.24958,-30.65528 0,-17.0517 -5.01801,-30.85938 -25.3159,-30.85938 m -4.18855,47.59407 c -11.92078,0 -15.16262,-4.80523 -15.16262,-16.10499 0,-11.40616 3.87588,-16.5284 15.16262,-16.5284 10.78515,0 12.87617,7.00915 12.87617,16.5284 0,9.41502 -2.30816,16.10499 -12.87617,16.10499 m 82.44007,-41.52946 c -3.24402,-3.76948 -9.21526,-6.06461 -20.62142,-6.06461 -20.7061,0 -26.25827,13.70346 -26.25827,30.75516 0,17.0517 5.33286,30.96795 25.73497,30.96795 9.63216,0 15.17565,-1.47435 18.94079,-5.33503 v 21.44002 h 16.42417 v -75.83696 l -10.98057,-0.94889 -3.23967,5.02236 z m -17.27101,41.52946 c -10.77212,0 -12.96954,-7.42606 -12.96954,-16.83891 0,-9.51708 2.19742,-16.00728 12.96954,-16.00728 11.92512,0 15.0649,4.71186 15.0649,16.00728 0,11.29542 -3.76296,16.83891 -15.0649,16.83891 m 82.20339,-14.43304 c 0,8.25986 -0.21062,14.12687 -11.82089,14.12687 -11.71232,0 -11.92077,-5.75628 -11.92077,-14.02482 V 280.52684 H 309.901 v 31.59982 c 0,20.29354 5.65206,28.55991 28.2429,28.55991 22.6017,0 28.03661,-8.37277 28.03661,-28.66631 v -31.49342 h -16.10933 v 31.8061 z m 54.79865,15.27552 c -10.57019,0 -14.01831,-4.1929 -14.95634,-11.29759 h 41.21026 c 0.52764,-19.76807 -0.31484,-37.13896 -26.36032,-37.13896 -25.31156,0 -30.75516,14.33315 -30.75516,30.85721 0,16.84325 5.22647,30.8659 30.86156,30.8659 11.71232,0 19.25563,-2.30381 26.89013,-8.05575 l -8.27071,-10.67875 c -4.39049,3.24618 -9.51274,5.44794 -18.61942,5.44794 m -0.62753,-34.73309 c 10.1446,0 11.50822,4.91596 11.92295,11.71666 h -26.25176 c 0.83163,-7.22194 4.18204,-11.71666 14.32881,-11.71666 m 61.47775,10.04037 c -7.6345,-1.04008 -9.72553,-1.774 -9.72553,-5.12441 0,-2.82711 1.67195,-4.28627 10.04472,-4.28627 5.96039,0 12.43973,1.66978 16.63697,3.86503 l 7.84513,-12.76109 c -6.28392,-3.55886 -15.48615,-5.43709 -25.00105,-5.43709 -18.72799,0 -25.85223,6.48151 -25.85223,18.50868 0,15.47964 11.19988,17.57934 25.85223,19.56614 8.0514,1.04008 10.45076,1.77617 10.45076,5.23515 0,4.07564 -2.39718,4.90728 -10.66573,4.90728 -6.69865,0 -14.75223,-2.19091 -20.92541,-6.16667 l -8.37276,12.03368 c 7.95803,5.33504 18.1048,7.42823 28.25158,7.42823 20.40211,0 27.71525,-5.55 27.71525,-19.14706 0,-14.75223 -11.19337,-16.51972 -26.25393,-18.6216 m 70.23919,-8.36842 v -14.02265 h -14.02265 v -17.04519 l -12.75674,2.61215 -2.83363,14.43087 h -10.4551 v 14.02265 h 9.72769 v 26.78374 c 0,13.17582 4.60112,18.62159 20.61274,18.62159 2.92699,0 7.31748,0 9.72552,-0.21931 v -13.70129 h -6.37946 c -7.00915,0 -7.64536,-2.51226 -7.64536,-7.11772 v -24.36918 h 14.02699 z" /><path
   d="m 231.18047,233.72966 c -3.2375,-2.547 -5.32852,-6.55751 -5.32852,-11.14994 l -0.0456,-66.77587 c 0,-41.473 -18.99723,-66.510964 -67.89195,-65.02141 -22.19565,0.681807 -42.74107,15.62077 -42.74107,15.62077 -2.49489,1.51778 -4.53597,0 -4.53597,0 0,0 -20.534567,-14.938963 -42.723707,-15.62077 C 19.005913,89.292886 0.03038793,114.32868 0.03038793,155.80385 L -1.11236e-5,227.8127 c 0,7.0439 2.0171945236,12.98257 10.4247051236,12.98257 h 49.563491 c 1.886913,0 3.417722,-1.54167 3.417722,-3.43075 0,-2.12576 -1.797887,-2.97476 -2.642546,-3.63269 -3.233157,-2.547 -5.326349,-6.62265 -5.326349,-11.21508 l -0.01737,-65.6663 c 0.119425,-7.00699 7.610621,-12.20088 15.562146,-12.23345 7.921125,0.0326 15.431864,5.22646 15.559974,12.23345 l -0.09337,70.96442 c 0,7.0439 2.02588,12.98257 10.424705,12.98257 h 47.046883 c 1.88691,0 3.41555,-1.54166 3.41555,-3.43075 0,-2.12576 -1.79571,-2.97476 -2.64254,-3.63269 -3.23099,-2.547 -5.32853,-6.62265 -5.32853,-11.21508 l -0.0456,-65.76184 c 0.11725,-7.00481 7.61279,-12.10534 15.54477,-12.13791 7.94284,0.0326 15.41667,5.13744 15.55129,12.13791 v 71.05997 c 0,7.04389 2.01719,12.98256 10.42471,12.98256 h 49.56131 c 1.89343,0 3.42207,-1.54166 3.42207,-3.43075 0,-2.13227 -1.80006,-2.98345 -2.64255,-3.6392 z"
   id="path9"
   style="fill:#8bc63f" /><path
   d="m 358.69149,118.23279 c 0,0 -5.85833,-6.01467 -11.49736,-11.18903 5.63903,-10.51807 8.22729,-23.604864 8.22729,-39.156152 C 355.1956,24.165078 336.10065,0.21930707 284.50042,-4.096e-7 232.90453,0.21930707 213.80524,24.165078 213.58159,67.887608 c 0.21931,43.683442 19.33814,67.933202 70.91883,68.148172 15.44055,0.0673 27.99536,-2.28427 38.02922,-6.63785 5.36109,5.96038 12.28339,12.71115 12.28339,12.71115 5.21995,5.20909 14.82605,4.12993 21.41396,-2.48187 6.6118,-6.5966 7.67794,-16.1875 2.4645,-21.39442 z M 301.40012,72.833968 c -0.0673,7.801701 -7.78433,13.673062 -16.88233,13.692604 -9.12623,-0.01954 -16.84542,-5.890903 -16.90622,-13.692604 v -9.87535 c 0.0543,-7.858157 7.77999,-13.70129 16.90622,-13.714318 9.09366,0.01303 16.81936,5.856161 16.88233,13.714318 v 9.87535 z"
   id="path11"
   style="fill:#8bc63f" /><path
   d="m 541.63084,268.58435 c 0,-2.93785 2.38198,-5.10487 5.19607,-5.10487 2.78803,0 5.17001,2.16702 5.17001,5.10487 0,2.96174 -2.38198,5.12876 -5.17001,5.12876 -2.81626,0.002 -5.19607,-2.16485 -5.19607,-5.12876 z m 5.1939,4.27758 c 2.3125,0 4.14295,-1.81525 4.14295,-4.27758 0,-2.42107 -1.83045,-4.25152 -4.14295,-4.25152 -2.34073,0 -4.16685,1.83045 -4.16685,4.25152 0,2.46233 1.82612,4.27758 4.16685,4.27758 z m -1.08351,-1.31367 h -0.89243 v -5.89959 h 2.24736 c 1.39618,0 2.08233,0.51461 2.08233,1.67412 0,1.05963 -0.66443,1.51778 -1.52646,1.62418 l 1.67411,2.59912 h -1.00099 l -1.5547,-2.56004 h -1.03139 v 2.56221 z m 1.07048,-3.31784 c 0.75997,0 1.43527,-0.0543 1.43527,-0.95757 0,-0.73175 -0.66661,-0.86637 -1.28762,-0.86637 h -1.2203 v 1.82611 h 1.07265 z"
   id="path15"
   style="fill:#51214d" /><path
   d="m 256.48117,231.30208 v 1.13128 h -3.19841 v 8.36191 h -1.30065 v -8.36191 h -3.19841 v -1.13128 h 7.69747 z"
   id="path19"
   style="fill:#8bc63f" /><path
   d="m 257.76228,231.30208 h 1.84348 l 2.7294,8.02535 2.70986,-8.02535 h 1.83046 v 9.49102 h -1.22899 v -5.59994 c 0,-0.19542 0.004,-0.51678 0.0152,-0.96409 0.007,-0.44512 0.0109,-0.92717 0.0109,-1.43961 l -2.70769,8.00581 h -1.27459 l -2.73809,-8.00581 v 0.29096 c 0,0.23234 0.007,0.58844 0.0195,1.0618 0.013,0.47553 0.0195,0.82729 0.0195,1.05094 v 5.59994 h -1.22899 v -9.49102 z"
   id="path21"
   style="fill:#8bc63f" />
</svg>